<svg xmlns="http://www.w3.org/2000/svg" viewBox="0 0 500 500"><defs><style>.cls-1{fill:#ccf3ff;}.cls-2{fill:#99e7ff;}.cls-3{fill:#505050;}.cls-4{fill:#263238;}.cls-5{fill:#fff;}.cls-6{fill:#00bfff;}.cls-7{fill:#455a64;}.cls-8{opacity:0.3;}.cls-9{fill:#ffb6c1;}.cls-10{fill:#d498a1;}.cls-11{fill:#00bfff;}</style></defs><g id="Background_Complete" data-name="Background Complete"><path class="cls-1" d="M301.66,105.39a8.27,8.27,0,0,0-3,1,4,4,0,0,1-1.45.28l-1.21.07v-14A1.74,1.74,0,0,0,294.52,91H280.75l.06,1.15a4,4,0,0,0,.27,1.45,8.56,8.56,0,0,1,1,3c0,4.56-2.85,7.71-7.36,7.49a7.36,7.36,0,0,1-7.31-7,7.62,7.62,0,0,1,.86-3.84,4.43,4.43,0,0,0,.44-1.74V91H255.4a1.85,1.85,0,0,0-2,1.76v13.94H253a4.4,4.4,0,0,1-1.74-.42,7.66,7.66,0,0,0-3.85-.83,7.35,7.35,0,0,0-6.93,7.36c-.18,4.52,3,7.3,7.55,7.3a8.34,8.34,0,0,0,2.95-1,4,4,0,0,1,1.45-.28l1,0v11.94a2.17,2.17,0,0,0,2.19,2.16h12.73l-.09-1.83a4,4,0,0,0-.27-1.45,8.34,8.34,0,0,1-1-3c0-4.55,2.84-7.71,7.36-7.49a7.37,7.37,0,0,1,7.31,7,7.79,7.79,0,0,1-.87,3.85,4.18,4.18,0,0,0-.43,1.74v1.15h13.54a2.17,2.17,0,0,0,2.19-2.16V118.81h.63a4.36,4.36,0,0,1,1.74.42,7.82,7.82,0,0,0,3.85.84,7.37,7.37,0,0,0,6.93-7.37C309.39,108.17,306.21,105.39,301.66,105.39Z"/><path class="cls-1" d="M293.89,65.93a5.66,5.66,0,0,0-1.41-1.59,2.75,2.75,0,0,1-.56-.84l-.36-.74,8.85-3.7a1.2,1.2,0,0,0,.71-1.43L297.49,49l-.71.34a2.49,2.49,0,0,0-.85.55,5.81,5.81,0,0,1-1.6,1.4c-2.88,1.17-5.61.24-6.66-2.67a5,5,0,0,1,2.48-6.45,5.26,5.26,0,0,1,2.65-.47,2.92,2.92,0,0,0,1.21-.18l.3-.13L290.81,33a1.27,1.27,0,0,0-1.65-.83l-8.79,3.68-.11-.24a3.15,3.15,0,0,1-.19-1.22,5.25,5.25,0,0,0-.49-2.64,5,5,0,0,0-6.47-2.43c-2.9,1.07-3.81,3.81-2.61,6.68a5.53,5.53,0,0,0,1.41,1.6,2.53,2.53,0,0,1,.56.84l.29.59-7.54,3.15a1.48,1.48,0,0,0-.78,2l3.35,8,1.13-.54a2.49,2.49,0,0,0,.85-.55,5.81,5.81,0,0,1,1.6-1.4c2.89-1.17,5.61-.24,6.66,2.67a5,5,0,0,1-2.48,6.45,5.25,5.25,0,0,1-2.65.47,2.92,2.92,0,0,0-1.21.18l-.73.32,3.57,8.53a1.49,1.49,0,0,0,1.94.82L284,65.93l.17.4a2.94,2.94,0,0,1,.2,1.21,5.24,5.24,0,0,0,.48,2.64,5,5,0,0,0,6.48,2.43C294.17,71.54,295.09,68.8,293.89,65.93Z"/><path class="cls-2" d="M416.34,108.88a5.85,5.85,0,0,0,.66-2,2.56,2.56,0,0,1,.44-.91l.45-.69,7.68,5.76a1.19,1.19,0,0,0,1.59-.11l5.65-7.53-.66-.44a2.63,2.63,0,0,0-.9-.45,5.54,5.54,0,0,1-2-.67c-2.48-1.89-3.05-4.72-1.08-7.1A5,5,0,0,1,435,93.59a5.28,5.28,0,0,1,1.75,2,2.83,2.83,0,0,0,.77,1l.26.19,5.45-7.26a1.27,1.27,0,0,0-.12-1.84L435.46,82l.15-.21a2.88,2.88,0,0,1,.95-.78,5.26,5.26,0,0,0,2-1.76,5,5,0,0,0-1.18-6.82c-2.4-2-5.22-1.35-7.09,1.14a5.85,5.85,0,0,0-.66,2,2.74,2.74,0,0,1-.44.91l-.36.55-6.54-4.9a1.48,1.48,0,0,0-2.08.32L415,79.38l1,.7a2.59,2.59,0,0,0,.91.45,5.89,5.89,0,0,1,2,.68c2.47,1.89,3.05,4.71,1.07,7.09a5,5,0,0,1-6.82,1.13,5.26,5.26,0,0,1-1.74-2.05,3,3,0,0,0-.78-.95l-.63-.46-5.56,7.4a1.49,1.49,0,0,0,.28,2.08l6.49,4.87-.25.34a3,3,0,0,1-.95.78,5.29,5.29,0,0,0-2,1.77,5,5,0,0,0,1.18,6.81C411.65,112,414.47,111.37,416.34,108.88Z"/><path class="cls-2" d="M364.16,48.16a7.42,7.42,0,0,0,.19,2.78,3.62,3.62,0,0,1-.09,1.31L364,53.31l-12.11-3.24a1.54,1.54,0,0,0-1.86.91l-3.18,11.87,1,.21a3.4,3.4,0,0,0,1.31.11A7.42,7.42,0,0,1,352,63c3.91,1.08,6,4.23,4.75,8.07A6.57,6.57,0,0,1,349,75.76a6.85,6.85,0,0,1-3.11-1.63,3.87,3.87,0,0,0-1.4-.78l-.41-.1L341,84.7a1.66,1.66,0,0,0,1,2.17l12,3.21-.08.34a3.87,3.87,0,0,1-.76,1.41A6.81,6.81,0,0,0,351.65,95a6.58,6.58,0,0,0,4.75,7.68c3.85,1.2,7-.9,8-4.83a7.18,7.18,0,0,0-.19-2.77,3.46,3.46,0,0,1,.1-1.32l.17-.84,10.3,2.76a2,2,0,0,0,2.37-1.4l2.93-11-1.6-.34a3.4,3.4,0,0,0-1.31-.1,7.63,7.63,0,0,1-2.78.16c-3.91-1.08-6-4.23-4.75-8.07a6.57,6.57,0,0,1,7.71-4.69,7,7,0,0,1,3.11,1.63,3.87,3.87,0,0,0,1.4.78l1,.25L386,61.22a1.93,1.93,0,0,0-1.35-2.39l-10.22-2.74.13-.54a3.81,3.81,0,0,1,.77-1.41,6.79,6.79,0,0,0,1.6-3.12,6.57,6.57,0,0,0-4.75-7.68C368.34,42.14,365.21,44.24,364.16,48.16Z"/><path class="cls-1" d="M200.32,86h13.84v.5a4.48,4.48,0,0,1-.45,1.82,7.92,7.92,0,0,0-.91,4,7.68,7.68,0,0,0,7.62,7.28c4.71.23,7.63-3.05,7.67-7.8a8.75,8.75,0,0,0-1-3.08,4,4,0,0,1-.28-1.52l-.06-1.2h7.41a69.92,69.92,0,0,0-34.91-38.1V60.38l1.26-.07A4,4,0,0,0,202,60a8.74,8.74,0,0,1,3.07-1c4.75,0,8.06,2.9,7.87,7.61a7.68,7.68,0,0,1-7.23,7.68,8.08,8.08,0,0,1-4-.87,4.39,4.39,0,0,0-1.82-.44h-.65V85.31a2.11,2.11,0,0,1-.33,1.14A2.39,2.39,0,0,1,200.32,86Z"/><path class="cls-1" d="M210.08,201.43c4.18-10.15,29.83-32.46,31.45-72.07a2.31,2.31,0,0,1-1.14.31h-14.1l0-1.2a4.4,4.4,0,0,1,.45-1.82,8,8,0,0,0,.9-4,7.67,7.67,0,0,0-7.62-7.29c-4.7-.23-7.63,3.06-7.66,7.81a8.81,8.81,0,0,0,1,3.08,3.89,3.89,0,0,1,.28,1.51l.1,1.91H200.48a2.27,2.27,0,0,1-2.29-2.25V115l-1,.06a4.14,4.14,0,0,0-1.51.29,8.74,8.74,0,0,1-3.07,1.05c-4.75,0-8.06-2.9-7.87-7.6a7.68,7.68,0,0,1,7.23-7.68,8,8,0,0,1,4,.87,4.55,4.55,0,0,0,1.82.44h.4V87.86a1.75,1.75,0,0,1,.21-.82,2.31,2.31,0,0,1-1.45.52h-14.1l0-1.2a4.57,4.57,0,0,1,.46-1.82,8.06,8.06,0,0,0,.9-4,7.68,7.68,0,0,0-7.62-7.29c-4.71-.23-7.63,3.06-7.67,7.81a8.63,8.63,0,0,0,1,3.08,4.3,4.3,0,0,1,.28,1.51l.09,1.91H157a2.27,2.27,0,0,1-2.29-2.25V72.86l-1,.06a4.1,4.1,0,0,0-1.51.29,8.79,8.79,0,0,1-3.08,1.05c-4.75,0-8.06-2.89-7.86-7.6A7.67,7.67,0,0,1,148.52,59a8,8,0,0,1,4,.87,4.59,4.59,0,0,0,1.82.44h.4V45.75a1.92,1.92,0,0,1,2.13-1.84h13.85v.5a4.48,4.48,0,0,1-.45,1.82,7.91,7.91,0,0,0-.9,4A7.67,7.67,0,0,0,177,57.51c4.7.23,7.63-3,7.66-7.8a8.81,8.81,0,0,0-1-3.08,3.93,3.93,0,0,1-.28-1.51l-.06-1.21h6.48c-29.06-10.37-62.82-6-79-.77-27.55,8.93-43,32.13-47.4,52.49-2.61,12.15-1,27.26,0,32.61S61.12,141,55.51,148.42,41,161.13,41,169.73c0,6.26,13.85,8.81,14.48,12.51s-4.28,4.59-4.28,9.43S57.78,198,57.78,198a14.3,14.3,0,0,0-5.15,5.8c-1.92,4,.89,4.12,3.31,7.31s1.79.72,1.79,14.24,37.59,14.79,43.2,16.58c1.86.59,20.28,39.14,22.68,54.61l100.27,1.82C219.39,266.45,206.44,210.28,210.08,201.43Z"/><path class="cls-3" d="M183.62,134.71a8.32,8.32,0,0,0-1-3,4,4,0,0,1-.28-1.45l-.07-1.2h14a1.74,1.74,0,0,0,1.76-1.53V113.8l-1.15.06a4,4,0,0,0-1.45.27,8.34,8.34,0,0,1-3,1c-4.56,0-7.71-2.84-7.49-7.35a7.38,7.38,0,0,1,7-7.32,7.73,7.73,0,0,1,3.84.87,4.26,4.26,0,0,0,1.75.43h.47V88.45a1.85,1.85,0,0,0-1.76-2H182.36V86a4.36,4.36,0,0,1,.42-1.74,7.8,7.8,0,0,0,.84-3.85,7.37,7.37,0,0,0-7.37-6.93c-4.52-.19-7.3,3-7.3,7.54a8.39,8.39,0,0,0,1,3,4,4,0,0,1,.28,1.44l.06,1H158.34a2.18,2.18,0,0,0-2.16,2.19v12.73l1.83-.09a4,4,0,0,0,1.45-.27,8.56,8.56,0,0,1,3-1c4.56,0,7.71,2.85,7.49,7.36a7.36,7.36,0,0,1-7,7.31,7.62,7.62,0,0,1-3.84-.86,4.43,4.43,0,0,0-1.75-.44l-1.15,0v13.54a2.18,2.18,0,0,0,2.16,2.19H170.2v.63a4.4,4.4,0,0,1-.42,1.74,7.69,7.69,0,0,0-.83,3.85,7.35,7.35,0,0,0,7.36,6.93C180.84,142.44,183.62,139.26,183.62,134.71Z"/><polygon class="cls-3" points="356.23 461.38 373.38 423.06 383.95 423.06 359.22 461.38 356.23 461.38"/><path class="cls-2" d="M385.09,344.43c2.17-11,8.16-14,16.32-17.79s4.62-12.5,4.62-12.5h4.76s-3.54,8.7,4.62,12.5,14.14,6.8,16.32,17.79-3.54,25.7-3.54,25.7H388.62S382.91,355.41,385.09,344.43Z"/><path class="cls-3" d="M371.86,316.56h74.51l-18.84-43.32h-39.4Z"/><polygon class="cls-1" points="467.71 423.71 357.2 423.71 346.36 423.71 346.36 367.68 467.71 367.68 467.71 423.71"/><path class="cls-3" d="M463.49,419.67s0-.3,0-.86,0-1.42,0-2.51c0-2.2,0-5.43-.05-9.58,0-8.3-.06-20.29-.11-35.1l.2.19-112.5.08h0l.27-.27c0,16.85,0,33.11,0,48.05l-.25-.25,80.67.12,23.38.07,6.26,0,1.63,0h.56s-.18,0-.53,0l-1.59,0-6.21,0-23.33.07-80.84.12h-.26v-.26c0-14.94,0-31.2,0-48.05v-.28H351l112.5.08h.19v.2c0,14.86-.08,26.89-.1,35.22,0,4.13,0,7.34-.05,9.54,0,1.07,0,1.9,0,2.47S463.49,419.67,463.49,419.67Z"/><path class="cls-3" d="M411.31,395.5a3.54,3.54,0,1,1-3.54-3.54A3.54,3.54,0,0,1,411.31,395.5Z"/><polygon class="cls-3" points="433.8 423.71 456.34 461.63 458.93 461.63 441.98 423.71 433.8 423.71"/><path class="cls-1" d="M88,386c5.15-2.66,11.21-3,16.93-2.06,3.07.51,6.27,1.43,8.36,3.73s2.49,6.37.09,8.35c-1.43,1.18-3.42,1.36-5.27,1.34-4.48-.05-9.45-.84-13,1.85-2,1.54-3.4,4.09-5.84,4.85s-5.08-.67-6.34-2.82a9.85,9.85,0,0,1-.72-7.28A11.08,11.08,0,0,1,88,386Z"/><path class="cls-1" d="M76.17,363.21c3.15,4.5,9.27,3,12.11.27s4-6.73,5.13-10.52c2.49-8.67,5-17.77,3.15-26.59a14.7,14.7,0,0,0-3.4-7.23,7.7,7.7,0,0,0-7.31-2.44c-3.08.82-5,3.84-6.39,6.72a63.42,63.42,0,0,0-6.26,27.2c0,4.38.5,9,3,12.59"/><path class="cls-1" d="M67.52,369.66c3.42-4.05,4.07-10,2.55-15.05s-5-9.41-8.92-12.94a48.07,48.07,0,0,0-16-9.43A17.11,17.11,0,0,0,38,331a7.55,7.55,0,0,0-6,3.65c-1.68,3.21-.07,7.09,1.67,10.27a121.39,121.39,0,0,0,10.49,16c3.15,4.06,6.75,8,11.54,9.89s9.77,1.61,12.31-1.71"/><path class="cls-3" d="M76,431.05a9.75,9.75,0,0,0,.28-2q.23-2.24.55-5.58A81.26,81.26,0,0,1,78,415.25a63.77,63.77,0,0,1,3-9.65,36,36,0,0,1,4.93-8.74,18.41,18.41,0,0,1,6.24-5.18A17.5,17.5,0,0,1,97.43,390a9.52,9.52,0,0,0,2-.29,9.19,9.19,0,0,0-2.07,0,15.83,15.83,0,0,0-5.47,1.42,18.4,18.4,0,0,0-6.58,5.23,35,35,0,0,0-5.11,8.91,59,59,0,0,0-3,9.81,70.09,70.09,0,0,0-1.09,8.29c-.18,2.37-.24,4.28-.28,5.61A8.91,8.91,0,0,0,76,431.05Z"/><path class="cls-3" d="M76.34,426.76a3.92,3.92,0,0,0,.06-.95c0-.71,0-1.61,0-2.71,0-2.35,0-5.76.12-10,.21-8.41.93-17.46,2.33-30.23,1.33-12,3.1-26,5-35,.4-2.06.81-3.92,1.19-5.55s.67-3,1-4.17.47-1.95.64-2.64a4.07,4.07,0,0,0,.16-.94,4.21,4.21,0,0,0-.33.89c-.2.69-.46,1.55-.78,2.6s-.71,2.53-1.12,4.15-.87,3.47-1.31,5.54A305.61,305.61,0,0,0,78,380.26c-1.4,12.79-2,24.44-2.09,32.87,0,4.21,0,7.63.15,10,.07,1.1.12,2,.17,2.71A3.68,3.68,0,0,0,76.34,426.76Z"/><path class="cls-3" d="M76.4,404.3a17.47,17.47,0,0,0,0-2.83c-.11-1.82-.36-4.45-.87-7.67A98.3,98.3,0,0,0,73,382.62a90.7,90.7,0,0,0-4.67-13.23A70.46,70.46,0,0,0,54.61,348a35.71,35.71,0,0,0-3.23-3c-.5-.42-.94-.83-1.38-1.17L48.74,343a19.53,19.53,0,0,0-2.38-1.53c-.14.19,3.38,2.26,7.82,7a74.33,74.33,0,0,1,13.39,21.3,105.13,105.13,0,0,1,4.7,13.11c1.22,4.11,2,7.89,2.65,11.07s.93,5.8,1.13,7.6A17.48,17.48,0,0,0,76.4,404.3Z"/><polygon class="cls-3" points="54.69 423.77 56.94 454.6 96.55 454.6 98.8 423.77 54.69 423.77"/><rect class="cls-3" x="50.87" y="411.62" width="52.66" height="12.15"/><polygon class="cls-1" points="50.87 453.42 50.87 456.79 53.34 456.79 102.65 456.79 102.65 453.42 50.87 453.42"/><polygon class="cls-3" points="55.77 462.72 53.34 456.79 100.77 456.79 97.94 462.72 55.77 462.72"/><path class="cls-2" d="M98.06,433.85s0,.1-.18.28l-.59.79L95,437.87l-.1.13-.1-.14L89.11,430h.32l-5.58,7.91-.17.24-.2-.23-6.61-7.87h.38l-.37.46L71,437.94l-.19.25-.18-.26L65,430h.33l-6.88,7.84-.12.14-.1-.16c-.9-1.52-1.62-2.74-2.15-3.62l-.55-1a2,2,0,0,1-.17-.34s.09.09.23.3l.61.93,2.26,3.55-.21,0C60,435.64,62.31,433,65,429.77l.17-.2.16.22L71,437.65h-.38l5.91-7.43.36-.46.19-.23.19.23,6.6,7.89h-.37c2-2.84,3.94-5.48,5.64-7.86l.16-.23.17.23L95,437.72h-.2c1-1.21,1.82-2.17,2.4-2.88l.64-.74Q98,433.84,98.06,433.85Z"/><path class="cls-2" d="M99.35,423.57c0,.14-9.92.25-22.16.25S55,423.71,55,423.57s9.92-.25,22.17-.25S99.35,423.43,99.35,423.57Z"/><path class="cls-2" d="M101.35,457.12c0,.14-10.79.25-24.09.25s-24.09-.11-24.09-.25,10.79-.24,24.09-.24S101.35,457,101.35,457.12Z"/></g><g id="Floor"><path class="cls-4" d="M478.62,462c0,.15-101.35.27-226.34.27S25.93,462.15,25.93,462s101.32-.26,226.35-.26S478.62,461.86,478.62,462Z"/></g><g id="Speech_Bubbles" data-name="Speech Bubbles"><path class="cls-5" d="M365.93,132.7a25.29,25.29,0,1,0-41.19,24.12l.38.29,0,0a29.34,29.34,0,0,0,20.23,5.08,22.23,22.23,0,0,0,6.68-1.87A25.33,25.33,0,0,0,365.93,132.7Z"/><path class="cls-4" d="M365.93,132.7a2.09,2.09,0,0,1,.09.4l.21,1.18a24.86,24.86,0,0,1,.24,4.62,26.19,26.19,0,0,1-1.42,7.17,25.61,25.61,0,0,1-4.87,8.36,26.6,26.6,0,0,1-4.18,3.82,24.8,24.8,0,0,1-5.38,2.94,26.79,26.79,0,0,1-13.39,1.1,30.86,30.86,0,0,1-10.4-3.79c-.55-.32-1.09-.67-1.63-1a11.39,11.39,0,0,1-1.51-1.25A25.15,25.15,0,0,1,316,142.34a24.22,24.22,0,0,1-.17-8.14,26.91,26.91,0,0,1,.84-3.91l.66-1.87c.2-.62.53-1.19.79-1.79a24.86,24.86,0,0,1,4.27-6.34l.62-.69.68-.64c.47-.41.9-.85,1.38-1.23a25.37,25.37,0,0,1,15.9-5.66,21.44,21.44,0,0,1,3.12.18c1,.1,2,.36,3,.52s1.88.54,2.77.86,1.74.68,2.53,1.11a25.73,25.73,0,0,1,7.69,5.88,27.91,27.91,0,0,1,2.37,3.2,21.81,21.81,0,0,1,1.6,2.94,8.44,8.44,0,0,1,.56,1.31l.42,1.18a11.63,11.63,0,0,1,.54,1.87l.27,1.18a2.38,2.38,0,0,1,.08.4,2.71,2.71,0,0,1-.13-.39c-.08-.29-.19-.67-.32-1.16a14.07,14.07,0,0,0-.59-1.85l-.45-1.16a8,8,0,0,0-.57-1.29,21.26,21.26,0,0,0-1.63-2.89,26.67,26.67,0,0,0-2.37-3.14,25.88,25.88,0,0,0-7.64-5.74c-.78-.42-1.65-.7-2.5-1.07s-1.8-.55-2.73-.83-1.92-.41-2.92-.5a22.31,22.31,0,0,0-3.07-.16,24.56,24.56,0,0,0-12.67,3.56,25.86,25.86,0,0,0-2.91,2c-.47.37-.89.81-1.34,1.21l-.67.63-.61.68a24.29,24.29,0,0,0-4.17,6.22,17.34,17.34,0,0,0-.77,1.76c-.22.6-.43,1.21-.65,1.82a27.46,27.46,0,0,0-.82,3.83,23.48,23.48,0,0,0,.18,8,24.64,24.64,0,0,0,7.47,13.61A10.78,10.78,0,0,0,325.5,157c.53.35,1.05.7,1.6,1a30.32,30.32,0,0,0,10.21,3.75,26.42,26.42,0,0,0,13.15-1,24.43,24.43,0,0,0,5.3-2.86,26.65,26.65,0,0,0,4.13-3.73,25.4,25.4,0,0,0,4.87-8.21,26,26,0,0,0,1.5-7.08,26.69,26.69,0,0,0-.14-4.6c-.06-.5-.12-.89-.16-1.18A2.11,2.11,0,0,1,365.93,132.7Z"/><path class="cls-4" d="M334.75,131.22h3.85a3.26,3.26,0,0,1,3.35-3.28,3.12,3.12,0,0,1,3,2,3.48,3.48,0,0,1-.28,3.12c-.65,1.07-2.08,2.05-4.67,1.59v8.67h3.8v-5.08a7.41,7.41,0,0,0,5.34-7.25c0-5.62-5.05-6.93-7.21-6.93C340.3,124,334.68,124.44,334.75,131.22Z"/><rect class="cls-4" x="340.01" y="145.09" width="3.86" height="3.6"/><path class="cls-5" d="M324.21,166.75a5.12,5.12,0,1,1-5.12-5.12A5.12,5.12,0,0,1,324.21,166.75Z"/><path class="cls-4" d="M324.21,166.75s0-.46-.26-1.22a5.13,5.13,0,0,0-1.88-2.7,4.88,4.88,0,1,0,0,7.84A5.13,5.13,0,0,0,324,168c.21-.76.21-1.22.26-1.22s0,.11,0,.33a3.75,3.75,0,0,1-.1.95A5.07,5.07,0,0,1,322.3,171a5.26,5.26,0,0,1-5,.82,5.35,5.35,0,0,1,0-10.08,5.29,5.29,0,0,1,5,.82,5.06,5.06,0,0,1,1.85,2.95,3.64,3.64,0,0,1,.1.94C324.24,166.64,324.23,166.75,324.21,166.75Z"/><path class="cls-5" d="M377.31,183.86a17,17,0,1,0-27.75,16.25l.26.2h0a19.76,19.76,0,0,0,13.65,3.42,15.06,15.06,0,0,0,4.48-1.25A17.08,17.08,0,0,0,377.31,183.86Z"/><path class="cls-4" d="M377.31,183.86a1,1,0,0,1,.06.27l.14.8a16.15,16.15,0,0,1,.17,3.11,17.62,17.62,0,0,1-1,4.83,17.27,17.27,0,0,1-3.28,5.63,17.5,17.5,0,0,1-2.82,2.57,16.58,16.58,0,0,1-3.62,2,18.07,18.07,0,0,1-9,.74,20.47,20.47,0,0,1-4.73-1.4,19.43,19.43,0,0,1-2.27-1.16c-.38-.21-.74-.44-1.1-.68a7.69,7.69,0,0,1-1-.84,16.93,16.93,0,0,1-5.14-9.36,16.1,16.1,0,0,1-.12-5.49,16.64,16.64,0,0,1,.57-2.63c.14-.42.29-.84.44-1.26s.36-.8.53-1.21a16.78,16.78,0,0,1,2.87-4.26l.42-.47.77-.72q.49-.44,1-.84a12.38,12.38,0,0,1,1.61-1.1,16.71,16.71,0,0,1,8.7-2.41,16.29,16.29,0,0,1,2.11.11c.68.07,1.34.25,2,.36s1.26.36,1.86.58,1.18.45,1.71.75a17.28,17.28,0,0,1,5.18,4,18.47,18.47,0,0,1,1.59,2.15,14.73,14.73,0,0,1,1.08,2,6.1,6.1,0,0,1,.38.89l.28.79a8.63,8.63,0,0,1,.37,1.26c.07.34.13.6.18.79a1.14,1.14,0,0,1,.05.27,2.32,2.32,0,0,1-.09-.26l-.21-.78a9.17,9.17,0,0,0-.4-1.25l-.3-.78a6.4,6.4,0,0,0-.38-.87,15.83,15.83,0,0,0-1.1-1.94,18.72,18.72,0,0,0-1.6-2.12,17.26,17.26,0,0,0-5.14-3.86c-.53-.29-1.12-.48-1.69-.73s-1.21-.37-1.84-.56-1.29-.27-2-.34a15.61,15.61,0,0,0-2.07-.1,16.49,16.49,0,0,0-8.53,2.4,13.59,13.59,0,0,0-1.57,1.07c-.34.26-.67.54-1,.83l-.77.71-.41.46a16.71,16.71,0,0,0-2.81,4.19c-.17.39-.38.77-.52,1.18l-.43,1.23a18.79,18.79,0,0,0-.55,2.58,15.89,15.89,0,0,0,.11,5.37,16.61,16.61,0,0,0,5,9.17,6.72,6.72,0,0,0,1,.8c.35.24.71.47,1.07.68a20.52,20.52,0,0,0,2.24,1.14,19.89,19.89,0,0,0,4.64,1.39,17.9,17.9,0,0,0,8.86-.7,16.46,16.46,0,0,0,3.57-1.92,17.85,17.85,0,0,0,2.78-2.52,17.29,17.29,0,0,0,3.29-5.53,16.58,16.58,0,0,0,.91-7.86c0-.34-.08-.6-.11-.8A1.18,1.18,0,0,1,377.31,183.86Z"/><path class="cls-4" d="M355,184.08h2.59a2.2,2.2,0,0,1,2.26-2.21,2.1,2.1,0,0,1,2,1.34,2.31,2.31,0,0,1-.18,2.09c-.44.73-1.41,1.39-3.15,1.08v5.84h2.56V188.8a5,5,0,0,0,3.59-4.89c0-3.79-3.4-4.67-4.85-4.67C358.76,179.24,355,179.51,355,184.08Z"/><rect class="cls-4" x="358.56" y="193.42" width="2.6" height="2.43"/><path class="cls-5" d="M404.74,152A17,17,0,1,0,377,168.24l.25.2h0a19.76,19.76,0,0,0,13.65,3.42,15.15,15.15,0,0,0,4.48-1.25A17.09,17.09,0,0,0,404.74,152Z"/><path class="cls-4" d="M404.74,152l.06.27c0,.2.08.46.14.8a17.1,17.1,0,0,1-4.08,13.57,17.42,17.42,0,0,1-2.81,2.57,16.89,16.89,0,0,1-3.63,2,18.18,18.18,0,0,1-9,.74,20.53,20.53,0,0,1-4.72-1.4,18.8,18.8,0,0,1-2.28-1.16c-.37-.21-.74-.45-1.1-.68a8.28,8.28,0,0,1-1-.84,17,17,0,0,1-5.15-9.36A16.35,16.35,0,0,1,371,153a19.22,19.22,0,0,1,.57-2.63c.15-.42.3-.84.44-1.26s.36-.8.54-1.21a16.78,16.78,0,0,1,2.87-4.26l.42-.47.77-.72c.32-.29.66-.57,1-.84a13.1,13.1,0,0,1,1.61-1.1A16.74,16.74,0,0,1,388,138.1a14.63,14.63,0,0,1,2.1.11c.69.07,1.35.25,2,.36s1.27.36,1.86.58,1.18.45,1.72.75a17.36,17.36,0,0,1,5.17,4,17.8,17.8,0,0,1,1.6,2.15,15.27,15.27,0,0,1,1.08,2,5.1,5.1,0,0,1,.37.89l.29.79a8.44,8.44,0,0,1,.36,1.26c.08.34.14.6.19.79s.05.27.05.27a1.1,1.1,0,0,1-.09-.26c-.06-.19-.13-.45-.22-.78a10.55,10.55,0,0,0-.39-1.25q-.15-.36-.3-.78a6.51,6.51,0,0,0-.39-.87,13.57,13.57,0,0,0-1.1-1.94,17.6,17.6,0,0,0-1.6-2.12,17.26,17.26,0,0,0-5.14-3.86c-.53-.29-1.11-.48-1.69-.73s-1.21-.37-1.83-.56-1.3-.27-2-.34a15.77,15.77,0,0,0-2.07-.1,16.47,16.47,0,0,0-8.53,2.4,11.75,11.75,0,0,0-1.57,1.07c-.34.26-.67.54-1,.83l-.76.71-.41.46a16.19,16.19,0,0,0-2.81,4.19,12.42,12.42,0,0,0-.52,1.18c-.15.41-.29.82-.43,1.23a17.44,17.44,0,0,0-.56,2.58,15.9,15.9,0,0,0,.12,5.37,16.66,16.66,0,0,0,5,9.17,7.3,7.3,0,0,0,1,.8c.36.24.71.47,1.08.68a20.38,20.38,0,0,0,2.23,1.14,20,20,0,0,0,4.65,1.39,17.91,17.91,0,0,0,8.86-.7,16.39,16.39,0,0,0,3.56-1.92,17.93,17.93,0,0,0,2.79-2.52,17.07,17.07,0,0,0,3.28-5.53,17.39,17.39,0,0,0,1-4.77,18.48,18.48,0,0,0-.09-3.09c-.05-.34-.08-.6-.11-.8A1.18,1.18,0,0,1,404.74,152Z"/><path class="cls-4" d="M392.88,158.59h-2.59A2.19,2.19,0,0,1,388,160.8a2.08,2.08,0,0,1-2-1.33,2.3,2.3,0,0,1,.19-2.1c.44-.73,1.4-1.38,3.14-1.08v-5.84h-2.56v3.42a5,5,0,0,0-3.59,4.89c0,3.79,3.4,4.67,4.85,4.67C389.14,163.43,392.93,163.16,392.88,158.59Z"/><rect class="cls-4" x="386.74" y="146.82" width="2.6" height="2.43" transform="translate(776.08 296.07) rotate(180)"/></g><g id="Clock"><circle class="cls-6" cx="152.39" cy="172.4" r="32.35"/><circle class="cls-5" cx="152.73" cy="172.08" r="29.27"/><path class="cls-4" d="M123.16,170.32s0,.16,0,.48,0,.79,0,1.4c0,.31,0,.65,0,1s.07.79.11,1.24.08.93.13,1.45a14.9,14.9,0,0,0,.28,1.62,27.82,27.82,0,0,0,2.74,8,29.17,29.17,0,0,0,6.9,8.79l1.2,1c.42.32.87.62,1.32.93a16.36,16.36,0,0,0,1.37.92l1.47.83.75.42.79.35,1.61.7c.55.23,1.12.38,1.69.58a16.83,16.83,0,0,0,1.75.52,27.32,27.32,0,0,0,3.67.67c.63.06,1.26.16,1.9.2l1.94,0c.33,0,.65,0,1,0l1-.08c.65-.07,1.32-.1,2-.19a31.21,31.21,0,0,0,4-.89l1-.29.5-.15.48-.2,2-.78c.64-.3,1.26-.65,1.89-1,.31-.17.64-.32.94-.51l.9-.59a33.48,33.48,0,0,0,3.51-2.6l1.59-1.54.4-.39.36-.42.73-.85.73-.85.65-.93.66-.93.32-.46c.1-.16.19-.33.29-.5l1.12-2c.31-.71.63-1.41.94-2.12a29.06,29.06,0,0,0,1.21-18.44c-.22-.74-.43-1.48-.65-2.22s-.57-1.42-.86-2.12l-.21-.53-.27-.5-.52-1-.52-1-.62-.95-.61-.94-.3-.46-.35-.44L174.57,153a33.19,33.19,0,0,0-3.13-3l-.82-.7c-.27-.23-.58-.42-.87-.63-.58-.4-1.15-.83-1.74-1.21l-1.83-1-.46-.26c-.15-.08-.31-.14-.47-.21l-.95-.42a28.75,28.75,0,0,0-3.82-1.4c-.65-.18-1.3-.3-1.95-.45l-1-.21c-.32-.07-.65-.09-1-.13l-1.92-.23c-.64-.05-1.28,0-1.92-.05a25.47,25.47,0,0,0-3.72.19,15.32,15.32,0,0,0-1.8.28c-.59.12-1.18.2-1.75.35l-1.69.49-.83.24-.79.32-1.57.63c-.52.2-1,.49-1.48.73s-1,.49-1.43.75l-1.33.86a29.24,29.24,0,0,0-8,7.82,28,28,0,0,0-3.76,7.59,14.13,14.13,0,0,0-.49,1.58c-.11.5-.22,1-.32,1.41s-.2.84-.27,1.22-.08.71-.12,1c-.08.6-.14,1.07-.18,1.39s-.07.47-.07.47a4.12,4.12,0,0,1,0-.47c0-.33.08-.79.14-1.4,0-.31.07-.65.11-1s.16-.78.25-1.22.2-.92.31-1.42a14.14,14.14,0,0,1,.48-1.59,27.9,27.9,0,0,1,3.73-7.65,29.43,29.43,0,0,1,8-7.91l1.34-.87c.46-.27,1-.51,1.44-.76a14.82,14.82,0,0,1,1.49-.75l1.58-.64.8-.32.84-.24,1.69-.51c.58-.15,1.18-.23,1.77-.35a13.8,13.8,0,0,1,1.82-.29,27.44,27.44,0,0,1,3.76-.2c.63,0,1.28,0,1.93.05l1.94.22c.33.05.66.07,1,.13l1,.21c.65.15,1.32.28,2,.45a31.42,31.42,0,0,1,3.86,1.41l1,.42.48.22.46.26,1.85,1c.6.38,1.17.81,1.77,1.22.29.21.6.4.87.64l.83.7a33.94,33.94,0,0,1,3.17,3.07c.46.58.93,1.16,1.39,1.75l.35.44.31.47.62.95.62,1,.53,1,.54,1,.26.51.22.54.87,2.15.66,2.24A29.33,29.33,0,0,1,180,183.42l-.95,2.13-1.14,2c-.09.17-.18.34-.28.5l-.33.47-.66.94-.66.93-.74.87-.74.86-.37.42-.4.39-1.62,1.56a31.7,31.7,0,0,1-3.54,2.62l-.91.6c-.3.19-.64.34-1,.51-.64.33-1.27.68-1.91,1l-2,.79-.49.2-.51.15-1,.29a32,32,0,0,1-4,.89c-.67.09-1.35.13-2,.19l-1,.08c-.33,0-.66,0-1,0l-2,0c-.65,0-1.28-.14-1.92-.2a27.79,27.79,0,0,1-3.7-.69,14.9,14.9,0,0,1-1.76-.53c-.57-.2-1.15-.36-1.71-.58l-1.61-.72-.8-.35-.76-.43-1.48-.84a15.86,15.86,0,0,1-1.38-.93c-.45-.32-.9-.62-1.33-.94l-1.21-1a29.5,29.5,0,0,1-6.91-8.89,28,28,0,0,1-2.7-8.07,15.38,15.38,0,0,1-.26-1.64c0-.52-.08-1-.12-1.45s-.08-.87-.09-1.25,0-.72,0-1c0-.61,0-1.08,0-1.4S123.16,170.32,123.16,170.32Z"/><path class="cls-4" d="M166.06,172.88a6.2,6.2,0,0,1-1,.07l-2.86.06c-2.43,0-5.81.05-9.63.06h-.19V171c0-4.27,0-8.13,0-10.92,0-1.35.05-2.46.06-3.31a7.55,7.55,0,0,1,.08-1.22,8.61,8.61,0,0,1,.07,1.22c0,.85,0,2,.06,3.31,0,2.79.06,6.65.06,10.92v1.91l-.19-.19c3.82,0,7.2,0,9.63.06l2.86.06A6.2,6.2,0,0,1,166.06,172.88Z"/><path class="cls-4" d="M152.62,147.36a16.22,16.22,0,0,1,0,4.95,16.22,16.22,0,0,1,0-4.95Z"/><path class="cls-4" d="M166,151.34a8.31,8.31,0,0,1-1.59,1.85,7.85,7.85,0,0,1-1.86,1.59,7.7,7.7,0,0,1,1.59-1.85A7.43,7.43,0,0,1,166,151.34Z"/><path class="cls-4" d="M173.88,159.91a11,11,0,0,1-2,1.35,9.55,9.55,0,0,1-2.14,1.18,6.58,6.58,0,0,1,1.94-1.5A6.34,6.34,0,0,1,173.88,159.91Z"/><path class="cls-4" d="M178.48,172.62a28.58,28.58,0,0,1-6.75,0,30.07,30.07,0,0,1,6.75,0Z"/><path class="cls-4" d="M131.7,172.17a12.82,12.82,0,0,1-3.18.2,12.93,12.93,0,0,1-3.19-.2,13.89,13.89,0,0,1,3.19-.19A13.77,13.77,0,0,1,131.7,172.17Z"/><path class="cls-4" d="M135,181.64a14.06,14.06,0,0,1-2.4,2.19,13.84,13.84,0,0,1-2.65,1.88,28.51,28.51,0,0,1,5-4.07Z"/><path class="cls-4" d="M143.17,189a21.58,21.58,0,0,1-1.64,2.84,24.5,24.5,0,0,1-1.73,2.78,10.3,10.3,0,0,1,1.41-3A10.68,10.68,0,0,1,143.17,189Z"/><path class="cls-4" d="M152.62,198.41a30.07,30.07,0,0,1,0-6.75,30.07,30.07,0,0,1,0,6.75Z"/><path class="cls-4" d="M167.16,193.92a14.71,14.71,0,0,1-5-4.4,30.24,30.24,0,0,1,2.52,2.2A31.36,31.36,0,0,1,167.16,193.92Z"/><path class="cls-4" d="M174,186.57a24.08,24.08,0,0,1-4.2-4.2,22.37,22.37,0,0,1,4.2,4.2Z"/><path class="cls-4" d="M134.7,163.1a8.87,8.87,0,0,1-2-1.7,9,9,0,0,1-1.7-2,9.29,9.29,0,0,1,2,1.7A8.87,8.87,0,0,1,134.7,163.1Z"/><path class="cls-4" d="M143.12,154.23a8.55,8.55,0,0,1-1.93-1.66,8.22,8.22,0,0,1-1.67-1.93,9.06,9.06,0,0,1,1.94,1.66A8.55,8.55,0,0,1,143.12,154.23Z"/><path class="cls-3" d="M126.52,172.37a29.26,29.26,0,0,1,27.53-29.22q-.87-.06-1.74-.06a29.28,29.28,0,1,0,0,58.55q.87,0,1.74-.06A29.26,29.26,0,0,1,126.52,172.37Z"/></g><g id="Character"><rect class="cls-7" x="170.85" y="181.61" width="135.22" height="162.16"/><path class="cls-7" d="M171.94,181.42c-1.06,0-24-6.65-22.55,8.8s11.24,71.85,11.24,71.85l8.61,81.42,23.13-8.16s-17.26-70.81-18.67-83.49S171.94,181.42,171.94,181.42Z"/><path class="cls-7" d="M305,181.42c1.05,0,23.95-6.65,22.55,8.8s-11.25,71.85-11.25,71.85l8.18,23.17-16.79,58.25-23.13-8.16s17.27-70.81,18.68-83.49S305,181.42,305,181.42Z"/><path class="cls-4" d="M177.71,260.55c-.14,0-1.31-17.57-2.61-39.27S172.86,182,173,182s1.32,17.57,2.62,39.27S177.86,260.54,177.71,260.55Z"/><path class="cls-4" d="M299.8,260.65c-.15,0,.64-17.64,1.76-39.39s2.13-39.36,2.28-39.36-.65,17.64-1.76,39.39S299.94,260.65,299.8,260.65Z"/><g class="cls-8"><path d="M300.24,325.5c-.78-2.58-2-5-2.8-7.58-1.39-4.67-1.14-9.66-.89-14.53q.68-12.7,1.33-25.4c.3-5.66.48-11.76-2.64-16.49a2.42,2.42,0,0,0-1.76-1.31c-.94,0-1.59.91-2,1.75-4.44,8.44-6.65,17.91-7.6,27.4s-.69,19.06-.42,28.6l1.14-1.55,15.55,17C301.29,331,301,328.07,300.24,325.5Z"/></g><path class="cls-4" d="M299.87,288.06a8.26,8.26,0,0,1-.27,1.45c-.22,1-.51,2.35-.86,3.93-.72,3.32-1.63,7.93-2.42,13.05s-1.29,9.79-1.59,13.17c-.15,1.62-.26,3-.35,4a7.83,7.83,0,0,1-.19,1.47,9,9,0,0,1,0-1.48c0-1,.08-2.33.19-4,.21-3.4.66-8.08,1.45-13.22s1.76-9.74,2.57-13.05c.4-1.65.76-3,1-3.9A7.51,7.51,0,0,1,299.87,288.06Z"/><path class="cls-7" d="M125.66,282.33q16.41-1.57,32.87-2.72a21.44,21.44,0,0,1,22.78,18.6,452.59,452.59,0,0,1,3.6,45.64l-37.09-.08-5.32-49.09-17.62-11.6"/><g class="cls-8"><path d="M152.82,289.61c.58,1.49,1.18,3,2.74,3.34s3.22.12,4.77.52c2.89.73,4.77,3.47,7.31,5,3.74,2.3,8.51,1.83,12.85,1.09,2.47-.43,5-1,7-2.62a10,10,0,0,0,3.09-7.16,29.61,29.61,0,0,0-1.09-7.92l-8.94-.23-34.79-3-4.47,2S149.77,281.72,152.82,289.61Z"/></g><path class="cls-4" d="M180.64,321.68c-.09,0-.1-1.51-.26-4a71.15,71.15,0,0,0-1.28-9.45,73.16,73.16,0,0,0-2.59-9.19c-.81-2.3-1.41-3.7-1.33-3.73a4.62,4.62,0,0,1,.52.93c.3.62.7,1.53,1.16,2.67a57.42,57.42,0,0,1,2.75,9.21,56.68,56.68,0,0,1,1.14,9.55c0,1.23,0,2.22,0,2.91A4.48,4.48,0,0,1,180.64,321.68Z"/><path class="cls-7" d="M204.14,424.41l9.54,25s-22.25,18.1-20.94,22.9L242,455.6,228.69,416Z"/><path class="cls-4" d="M242,455.6l-1.49-3.94-46.62,17.53s-1.87,1.7-1.1,3.16Z"/><path class="cls-5" d="M213.41,449.53c.09.24,1.33-.06,2.78.31s2.41,1.16,2.6,1-.64-1.44-2.4-1.85S213.28,449.33,213.41,449.53Z"/><path class="cls-5" d="M208.77,453.63c0,.25,1.21.31,2.37,1.05s1.76,1.73,2,1.64-.08-1.5-1.54-2.39S208.7,453.4,208.77,453.63Z"/><path class="cls-5" d="M208,461c.24,0,.16-1.34-.9-2.45s-2.37-1.24-2.4-1,.9.7,1.76,1.62S207.78,461.08,208,461Z"/><path class="cls-5" d="M211.25,443.52c.18.19,1.17-.52,2.56-.89s2.59-.3,2.65-.55-1.26-.76-2.89-.3S211.07,443.37,211.25,443.52Z"/><path class="cls-7" d="M263.09,422.43,251.9,452.85,250,479.46a3.32,3.32,0,0,1-3.78,3.05h0a3.29,3.29,0,0,1-2.48-1.75c-3.15-6.09-14.6-28.55-13.66-30.73,1.09-2.53,9.67-32.87,9.67-32.87Z"/><path class="cls-4" d="M246.21,482.51,230.78,448l-.45,1.3a5,5,0,0,0,.08,3.45c1.16,3,4.55,11,13.22,28a3.34,3.34,0,0,0,2.58,1.78Z"/><path class="cls-5" d="M243.79,466.71c.14.15,1.38-1.22,3.5-1.46s3.66.71,3.76.53-.25-.44-.93-.78a5.28,5.28,0,0,0-5.63.72C243.92,466.23,243.72,466.66,243.79,466.71Z"/><path class="cls-5" d="M244.56,471.57c.11.18,1.43-.48,3.17-.39s3,.81,3.13.64-1.11-1.28-3.1-1.35S244.43,471.43,244.56,471.57Z"/><path class="cls-5" d="M241.52,460.06c.09.19,2.13-.83,4.85-.93s4.83.7,4.91.49-2-1.35-4.94-1.2S241.4,459.92,241.52,460.06Z"/><path class="cls-5" d="M244.15,450.53c0,.21,1.95.08,4.19.76s3.79,1.8,3.93,1.63-1.33-1.62-3.73-2.32S244.1,450.35,244.15,450.53Z"/><path class="cls-5" d="M245.73,444.13c0,.21,2.09-.23,4.38.67s3.55,2.55,3.72,2.41-.14-.54-.7-1.2a7.28,7.28,0,0,0-2.77-1.88,7.1,7.1,0,0,0-3.31-.43C246.19,443.81,245.71,444,245.73,444.13Z"/><path class="cls-5" d="M252.84,443a2.86,2.86,0,0,0,.44-1.15,8.56,8.56,0,0,0,.12-3.35,3.75,3.75,0,0,0-1-2.23,1.34,1.34,0,0,0-1.52-.21,2.18,2.18,0,0,0-1,1.22,4.69,4.69,0,0,0,2.49,5.44,5.46,5.46,0,0,0,6-1,1.89,1.89,0,0,0,.59-1.46,1.32,1.32,0,0,0-1.07-1.1,4.56,4.56,0,0,0-2.38.36,9.48,9.48,0,0,0-2.91,1.67c-.6.51-.86.87-.83.89a15.12,15.12,0,0,1,3.9-2.08,4.38,4.38,0,0,1,2.08-.27.71.71,0,0,1,.59.6,1.26,1.26,0,0,1-.45.93,4.83,4.83,0,0,1-5.19.78,4.07,4.07,0,0,1-2.18-4.59,1.56,1.56,0,0,1,.63-.88.73.73,0,0,1,.84.1,3.38,3.38,0,0,1,.84,1.88A12.8,12.8,0,0,1,252.84,443Z"/><path class="cls-4" d="M234.67,435.91a49.49,49.49,0,0,1-1.81,7,51,51,0,0,1-2.32,6.84,48.79,48.79,0,0,1,1.82-7A51.85,51.85,0,0,1,234.67,435.91Z"/><g class="cls-8"><path d="M188.91,290.63a25.35,25.35,0,0,1,1.2-17.68c2.4-5.56,5.82-10.62,8.42-16.09,3.48-7.36,6.37-15.88,6.61-24,.33,6.37.36,19.23-.35,20.42-1,1.76-2.45,4-3.47,5.73-5.71,9.94-9.14,20.65-12.41,31.64"/></g><polygon class="cls-3" points="235.92 209.96 244.47 203.33 274.12 213 276.92 219.99 281.2 223.49 258.7 239.21 235.92 209.96"/><path class="cls-6" d="M296.12,221.44s9.57,2.36,13.64,9c2.74,4.47,14.75,19.47,21,32.93a72.69,72.69,0,0,1,5,17.31c.86,7.08-21.93,16.94-21.93,16.94s-8.8-3.86-14.59-16.95-10.52-35.63-10.52-35.63l7.47-23.88"/><path class="cls-6" d="M212.43,214c-1,0-8.08.5-13.64,9.6s-21.08,37-21.08,37c-5.39.53-15.48,4.35-19.27,8l-10.62,5.33,9.8,11.89s13.08,10.91,21.17,8.64a39.88,39.88,0,0,0,12.68-5.86l18.69-42.43Z"/><path class="cls-6" d="M295.5,226.83,277.31,220l-10.05,9.13a10.14,10.14,0,0,1-13.82-.14l-.09-.08L235.92,210l-23.49,4-11.37,43.19s-11.87,28.63-12.63,37.18A42.87,42.87,0,0,0,190.71,311s27.12-11.33,45.89-10.22c35.37,2.08,55.21,19.07,55.21,19.07s1.58-9.1,0-15.41-1.05-15.81-1.05-15.81l4.86-40.74Z"/><path class="cls-4" d="M269.19,286.83a2.79,2.79,0,0,1-.66-.15l-1.88-.51c-.81-.24-1.81-.52-3-.78s-2.49-.63-4-.88l-2.33-.45c-.81-.15-1.67-.24-2.54-.38-1.76-.29-3.65-.44-5.64-.63a89.43,89.43,0,0,0-25.83,1.7c-1.94.45-3.8.85-5.5,1.36-.85.25-1.69.46-2.47.71l-2.25.75c-1.45.44-2.71,1-3.83,1.39s-2.08.82-2.85,1.17l-1.8.76a4.82,4.82,0,0,1-.64.23,3,3,0,0,1,.6-.33l1.75-.85c.77-.37,1.71-.81,2.83-1.25s2.38-1,3.82-1.47l2.25-.78c.78-.27,1.62-.48,2.47-.74,1.71-.54,3.57-.95,5.52-1.42a86.27,86.27,0,0,1,26-1.71c2,.21,3.9.38,5.66.69.88.14,1.74.24,2.55.41l2.33.48c1.49.27,2.81.66,4,1s2.16.59,3,.86l1.85.61A3.07,3.07,0,0,1,269.19,286.83Z"/><path class="cls-4" d="M190.15,279.26c-.09,0-.34-1.25-1-3.22a31.26,31.26,0,0,0-8.76-13.38c-1.55-1.39-2.61-2.12-2.56-2.2a3.23,3.23,0,0,1,.8.44,19.29,19.29,0,0,1,2,1.48,27.62,27.62,0,0,1,8.87,13.55,18.4,18.4,0,0,1,.55,2.42A3.43,3.43,0,0,1,190.15,279.26Z"/><path class="cls-4" d="M191.19,268.05a17.15,17.15,0,0,1-1.78-1.41,34.07,34.07,0,0,0-4.55-3c-3.74-2-7.07-3.06-7-3.22a8.07,8.07,0,0,1,2.22.56,32,32,0,0,1,5.05,2.2,24.37,24.37,0,0,1,4.53,3.14A6.89,6.89,0,0,1,191.19,268.05Z"/><polygon class="cls-6" points="301.73 273.23 289.15 228.91 312.67 218.82 330.74 263.38 301.73 273.23"/><path class="cls-4" d="M333,268.87s0-.07-.12-.24l-.32-.72-1.2-2.83L327,254.56c-3.67-9-8.77-21.48-14.54-35.64l.34.14L303.56,223l-14.31,6.14.14-.3c3.58,13.45,6.69,25.15,8.92,33.52,1.09,4.15,1.95,7.48,2.56,9.8l.66,2.63c.07.28.12.5.16.68s.05.24,0,.24l-.08-.23-.2-.67-.75-2.61c-.64-2.31-1.55-5.62-2.7-9.75-2.27-8.36-5.45-20-9.1-33.48l-.06-.21.21-.09,14.31-6.15,9.21-3.95.24-.1.1.24c5.72,14.19,10.76,26.71,14.38,35.71L331.5,265c.47,1.22.84,2.18,1.11,2.86l.27.74A1.09,1.09,0,0,1,333,268.87Z"/><path class="cls-4" d="M204.79,253.5a2.33,2.33,0,0,1-.23.45l-.73,1.23c-.65,1.06-1.55,2.62-2.63,4.56a138.18,138.18,0,0,0-7.41,15.67A85.06,85.06,0,0,0,188.87,292a41.27,41.27,0,0,0-.55,5.21c0,.57,0,1,0,1.43a2.42,2.42,0,0,1,0,.5,1.78,1.78,0,0,1-.07-.49c0-.39,0-.87-.08-1.44a35.22,35.22,0,0,1,.38-5.27,78.11,78.11,0,0,1,4.81-16.71,118.25,118.25,0,0,1,7.57-15.66c1.13-1.92,2.08-3.46,2.78-4.48l.82-1.19C204.67,253.63,204.77,253.49,204.79,253.5Z"/><path class="cls-4" d="M204.79,228a4.26,4.26,0,0,1,.19,1c.09.64.2,1.57.31,2.72.22,2.31.43,5.5.46,9a79.3,79.3,0,0,1-.37,9c-.11,1.15-.25,2.08-.36,2.72a4.25,4.25,0,0,1-.23,1c-.08,0,.08-1.43.23-3.73s.25-5.48.21-9-.18-6.7-.31-9A30.62,30.62,0,0,1,204.79,228Z"/><path class="cls-4" d="M266.08,281.62a1.78,1.78,0,0,1-.53,0l-1.52-.17-5.57-.66c-4.7-.54-11.21-1.16-18.42-1.52s-13.75-.4-18.48-.34l-5.6.1-1.53,0a2.4,2.4,0,0,1-.53,0,1.74,1.74,0,0,1,.53-.08l1.52-.12c1.32-.09,3.23-.18,5.6-.26,4.74-.15,11.29-.17,18.52.19s13.74,1,18.44,1.67c2.35.32,4.24.6,5.55.83l1.5.27A2.18,2.18,0,0,1,266.08,281.62Z"/><path class="cls-4" d="M271.09,238.28a2.34,2.34,0,0,1-.39.31c-.32.21-.7.48-1.16.8-1,.69-2.51,1.65-4.38,2.81-3.73,2.3-9,5.31-15,8.24s-11.66,5.22-15.78,6.73c-2.06.75-3.74,1.33-4.92,1.7l-1.35.42a1.55,1.55,0,0,1-.48.11,1.77,1.77,0,0,1,.45-.21l1.32-.51c1.15-.43,2.81-1.06,4.85-1.86,4.08-1.59,9.66-3.93,15.68-6.85s11.3-5.87,15.08-8.09c1.89-1.11,3.41-2,4.46-2.66l1.21-.72C270.92,238.34,271.08,238.26,271.09,238.28Z"/><g class="cls-8"><path d="M292.71,241.56c1.41,15.44,3.5,31.52,12.22,44.33l-12.06-41.63"/></g><g class="cls-8"><path d="M230,279a49.93,49.93,0,0,0-16.88,4.4,4.77,4.77,0,0,0-1.84,1.26,1.72,1.72,0,0,0-.11,2.09c.68.8,2,.41,3,.08a89.3,89.3,0,0,1,55.5.15c.55.18,1.2.42,1.64,0s.32-1.12.06-1.65c-1.4-2.91-5-3.82-8.23-4.29-11-1.59-22.16-1.81-33.28-2"/></g><path class="cls-3" d="M236.26,210.31c3.15,4,5.69,8.12,8.84,12.1,2.06,2.62,6.39,7.53,6.39,7.53a92.17,92.17,0,0,1,7.07-7.81s3.15,3.8,3.62,4.24"/><path class="cls-4" d="M262.18,226.37a7.83,7.83,0,0,1-1-1.06l-2.73-3.07.27,0c-1,1-2.06,2.14-3.27,3.44a50.2,50.2,0,0,0-3.72,4.39l-.2.26-.2-.24-2.84-3.33c-1.81-2.18-3.63-4.18-5.05-6.19s-2.69-3.82-3.74-5.34-1.86-2.68-2.51-3.6a10.19,10.19,0,0,1-.9-1.34s.12.09.3.3.44.51.76.92c.66.8,1.57,2,2.65,3.51s2.36,3.31,3.82,5.27,3.26,4,5.07,6.13c1,1.15,1.91,2.27,2.82,3.33l-.4,0a47.37,47.37,0,0,1,3.81-4.41c1.23-1.29,2.36-2.43,3.35-3.38l.14-.14.12.15,2.59,3.16A9.54,9.54,0,0,1,262.18,226.37Z"/><path class="cls-3" d="M262.1,226.64c1.09-1,3.46-3,4.55-4l3.94,7.27,7.94-9.51-3.29-4.65"/><path class="cls-4" d="M275.24,215.78a9,9,0,0,1,1,1.19l2.48,3.35.08.12-.09.12c-1.76,2.16-4.1,5-6.68,8.1l-1.22,1.45-.24.29-.18-.33-3.9-7.3.32,0-3.39,2.83a9.76,9.76,0,0,1-1.3,1,8.3,8.3,0,0,1,1.15-1.16l3.27-2.95.19-.18.12.23,4,7.24-.42,0,1.21-1.46c2.58-3.09,5-5.9,6.77-8v.24L276,217.1A7.55,7.55,0,0,1,275.24,215.78Z"/><path class="cls-4" d="M260.83,231.65s.05.11.05.29l-.21-.05a16.77,16.77,0,0,1,.42-2.65,8.63,8.63,0,0,1,.87-2.83,8.46,8.46,0,0,1-.37,2.94,18,18,0,0,1-.71,2.59l-.21-.05C260.74,231.73,260.79,231.64,260.83,231.65Z"/><path class="cls-4" d="M243.58,204c.11-.09,3.33,3.76,7.2,8.58s6.91,8.82,6.8,8.91-3.34-3.75-7.21-8.58S243.46,204.05,243.58,204Z"/><path class="cls-7" d="M341,281.14A11.76,11.76,0,0,1,350.14,295c-.06.26-.12.53-.2.8-2.24,7.5-11,11.42-12.75,17.6s-5.25,36.75-5.25,36.75-25.06.37-25.45,0,4.6-30,6.18-38.69,2.92-26.83,13.77-29.94A30,30,0,0,1,341,281.14Z"/><path class="cls-4" d="M325.72,345.8a1.29,1.29,0,0,1,0-.32c0-.25.07-.56.12-1,.12-.87.29-2.09.51-3.65.48-3.21,1.16-7.79,2-13.44s1.88-12.41,3.24-19.88a8.66,8.66,0,0,1,.38-1.43,6.2,6.2,0,0,1,.77-1.29,20,20,0,0,1,2-2.21,44,44,0,0,0,4.18-4.34,6.81,6.81,0,0,0,1.33-2.66,5.29,5.29,0,0,0-.25-3,5.8,5.8,0,0,0-4.68-3.62,11.5,11.5,0,0,0-6.21.71,6.87,6.87,0,0,0-2.44,1.79,13,13,0,0,0-1.66,2.55c-1.82,3.67-2.41,7.66-3.21,11.35-1.65,7.39-3.13,14.05-4.38,19.66s-2.29,10.09-3,13.25l-.85,3.59c-.09.39-.17.7-.23.94s-.09.31-.09.31a1.19,1.19,0,0,1,0-.33c.05-.24.11-.55.18-.94l.75-3.62c.67-3.16,1.64-7.69,2.84-13.27s2.66-12.28,4.27-19.68c.79-3.69,1.36-7.71,3.22-11.49a13.61,13.61,0,0,1,1.73-2.66,7.33,7.33,0,0,1,2.63-1.93,12,12,0,0,1,6.5-.74,6.31,6.31,0,0,1,5.07,3.94,5.69,5.69,0,0,1,.27,3.26,7.23,7.23,0,0,1-1.42,2.87,45.42,45.42,0,0,1-4.24,4.39c-1.38,1.39-2.84,2.77-3,4.66-1.38,7.44-2.41,14.2-3.35,19.85s-1.65,10.21-2.16,13.41c-.26,1.55-.47,2.77-.61,3.64-.07.39-.13.7-.17.94A1,1,0,0,1,325.72,345.8Z"/><path class="cls-4" d="M348.76,288.77a20.31,20.31,0,0,0-4.72.63,19.9,19.9,0,0,0-4.21,2.22,8.83,8.83,0,0,1,8.93-2.85Z"/><path class="cls-4" d="M336.33,280.69c.05,0,.39.34.7,1.09a6.34,6.34,0,0,1-.81,6c-.5.64-.92.91-1,.87s.26-.42.65-1.08a7.35,7.35,0,0,0,1-2.76,7.57,7.57,0,0,0-.19-2.92C336.47,281.16,336.26,280.73,336.33,280.69Z"/><path class="cls-4" d="M326.77,284.44c.07-.11,1.13.64,1.72,2.07a3.44,3.44,0,0,1,.26,2.68c-.15,0-.18-1.19-.74-2.48S326.66,284.55,326.77,284.44Z"/><path class="cls-4" d="M316.9,298.91a4.84,4.84,0,0,1,3,.26,4.79,4.79,0,0,1,2.55,1.6c-.09.12-1.19-.6-2.71-1.1S316.9,299.07,316.9,298.91Z"/><path class="cls-4" d="M326.44,281.55c0,.07-.89.3-2.34,1.15a15.28,15.28,0,0,0-4.89,5,32.36,32.36,0,0,0-3.75,9.81c-.87,3.89-1.78,8.19-2.71,12.7-1.86,9-3.42,17.24-4.52,23.18-.53,2.93-1,5.32-1.29,7-.15.79-.27,1.42-.36,1.91a4.07,4.07,0,0,1-.16.66,3.17,3.17,0,0,1,.05-.68l.27-1.92c.25-1.68.63-4.09,1.13-7.07,1-6,2.5-14.18,4.37-23.22.93-4.52,1.86-8.81,2.75-12.71a31.65,31.65,0,0,1,3.91-9.89,14.87,14.87,0,0,1,5.1-5A9.23,9.23,0,0,1,326.44,281.55Z"/><path class="cls-9" d="M123.78,284.53s-.48-1.62,3-5.07c1.43-1.42,9.21-3.72,9.21-3.72l11.83-3.17,2.91-1.2s5.69-2.09,8.23.9a9.88,9.88,0,0,1,2.1,6.89l-1.5,2.09s2.31,3.44,1.53,4.79a18.93,18.93,0,0,1-1.32,1.87,4.23,4.23,0,0,1-6.52.3,3.18,3.18,0,0,1-.27-.37,3,3,0,0,1-.16-3.57l-5.71-.17a16.15,16.15,0,0,0-10.6-2.55A56,56,0,0,0,123.78,284.53Z"/><path class="cls-7" d="M129.31,281.14A11.76,11.76,0,0,0,120.12,295c.06.26.13.53.21.8,2.23,7.5,11,11.42,12.74,17.6s5.26,36.75,5.26,36.75,25,.37,25.44,0-4.6-30-6.18-38.69-2.92-26.83-13.77-29.94A30,30,0,0,0,129.31,281.14Z"/><path class="cls-4" d="M144.54,345.8a1,1,0,0,1-.08-.32c0-.24-.1-.55-.17-.94-.14-.87-.35-2.09-.61-3.64-.51-3.2-1.25-7.77-2.16-13.41s-2-12.41-3.35-19.85c-.19-1.89-1.65-3.27-3-4.66a44.34,44.34,0,0,1-4.25-4.39,7.23,7.23,0,0,1-1.42-2.87,5.78,5.78,0,0,1,.27-3.26,6.31,6.31,0,0,1,5.07-3.94,12,12,0,0,1,6.5.74,7.33,7.33,0,0,1,2.63,1.93,13.61,13.61,0,0,1,1.73,2.66c1.86,3.78,2.44,7.8,3.22,11.49,1.61,7.4,3.06,14.07,4.27,19.68s2.17,10.11,2.84,13.27l.75,3.62c.08.39.14.7.18.94s.05.33.05.33a1.19,1.19,0,0,1-.1-.31c-.06-.24-.14-.55-.23-.94l-.84-3.59c-.72-3.16-1.74-7.68-3-13.25s-2.73-12.27-4.38-19.66c-.8-3.69-1.39-7.68-3.2-11.35a13,13,0,0,0-1.67-2.55,6.87,6.87,0,0,0-2.44-1.79,11.5,11.5,0,0,0-6.21-.71,5.81,5.81,0,0,0-4.68,3.62,5.29,5.29,0,0,0-.25,3,6.81,6.81,0,0,0,1.33,2.66,45.19,45.19,0,0,0,4.18,4.34,19,19,0,0,1,2,2.21,5.8,5.8,0,0,1,.77,1.29,8.66,8.66,0,0,1,.38,1.43c1.36,7.47,2.35,14.22,3.24,19.88s1.53,10.23,2,13.44c.22,1.56.39,2.78.52,3.65l.12,1A1.54,1.54,0,0,1,144.54,345.8Z"/><path class="cls-4" d="M121.5,288.77a8.81,8.81,0,0,1,8.93,2.85,19.9,19.9,0,0,0-4.21-2.22A20.26,20.26,0,0,0,121.5,288.77Z"/><path class="cls-4" d="M133.93,280.69c.08,0-.14.47-.35,1.21a7.57,7.57,0,0,0-.19,2.92,7.35,7.35,0,0,0,1,2.76c.39.66.71,1,.65,1.08s-.46-.23-1-.87a6.3,6.3,0,0,1-.8-6C133.54,281,133.88,280.65,133.93,280.69Z"/><path class="cls-4" d="M143.49,284.44c.11.11-.71,1-1.24,2.27s-.59,2.47-.74,2.48a3.49,3.49,0,0,1,.26-2.68C142.36,285.08,143.42,284.33,143.49,284.44Z"/><path class="cls-4" d="M153.36,298.91c0,.16-1.31.24-2.83.76s-2.62,1.22-2.71,1.1a4.79,4.79,0,0,1,2.55-1.6A4.84,4.84,0,0,1,153.36,298.91Z"/><path class="cls-10" d="M155.63,278c0-.06.55.08,1.32.51a8.47,8.47,0,0,1,2.58,2.24,9.19,9.19,0,0,1,1.51,3.07,3,3,0,0,1,.2,1.4c-.18.06-.57-2.1-2.13-4.15A17.4,17.4,0,0,0,155.63,278Z"/><path class="cls-10" d="M155.26,280.93c.08.13-.93.77-1.69,2s-.95,2.36-1.1,2.35a3.33,3.33,0,0,1,.66-2.63C154,281.28,155.22,280.8,155.26,280.93Z"/><path class="cls-4" d="M133.07,313.43s-.06-.09-.13-.28l-.33-.85a14.77,14.77,0,0,0-1.9-2.95,52.89,52.89,0,0,0-3.83-4,38.25,38.25,0,0,1-4.89-5.58,16,16,0,0,1-1.87-3.92,11.44,11.44,0,0,1-.39-4.69,12,12,0,0,1,5.48-8.55,13.63,13.63,0,0,1,5.28-1.92,31.83,31.83,0,0,1,5.82-.47,28.76,28.76,0,0,1,6,.72,12.48,12.48,0,0,1,5.7,2.56,15.57,15.57,0,0,1,3.78,5,36.15,36.15,0,0,1,2.22,5.63,109.41,109.41,0,0,1,2.68,11.07c1.39,7.12,2.38,13.57,3.26,19s1.53,9.75,2,12.81c.23,1.49.41,2.66.53,3.49.06.38.1.68.13.91a2.49,2.49,0,0,1,0,.31,1,1,0,0,1-.08-.3q-.08-.35-.18-.9l-.63-3.47c-.52-3.06-1.26-7.42-2.18-12.8s-2-11.84-3.36-18.94c-.72-3.54-1.53-7.26-2.69-11a37.9,37.9,0,0,0-2.2-5.55,14.94,14.94,0,0,0-3.66-4.81,12,12,0,0,0-5.47-2.46,29.17,29.17,0,0,0-5.91-.71,31.89,31.89,0,0,0-5.73.45,13,13,0,0,0-5.1,1.84,11.55,11.55,0,0,0-5.31,8.19,11.22,11.22,0,0,0,.34,4.53,15.69,15.69,0,0,0,1.8,3.83,37.58,37.58,0,0,0,4.78,5.57,46.14,46.14,0,0,1,3.79,4.12,13.41,13.41,0,0,1,1.83,3c.12.37.21.66.29.88A1.48,1.48,0,0,1,133.07,313.43Z"/><path class="cls-11" d="M155.23,421.13c0,1.12,5.25,40.5,5.25,40.5h6.38V423.75Z"/><path class="cls-11" d="M324.9,421.13c0,1.12-5.25,40.5-5.25,40.5h-6.37V423.75Z"/><path class="cls-7" d="M142.72,371.17c0,.74,7.85,54.32,11.42,56.82s172.18,0,172.18,0,9-52.64,8.59-56.26Z"/><rect class="cls-7" x="133.14" y="343.06" width="205.44" height="30.72" rx="7.33"/><path class="cls-4" d="M331.24,373.78s.41,0,1.18-.13a7.15,7.15,0,0,0,3.15-1.36,7.24,7.24,0,0,0,2.83-4.68,29.8,29.8,0,0,0,.09-3.6c0-1.29,0-2.66,0-4.11q0-4.36,0-9.68a7.13,7.13,0,0,0-2.07-4.88,7.24,7.24,0,0,0-5.3-2.14l-28.07,0-162.52.08a7,7,0,0,0-5.12,2.19,7.14,7.14,0,0,0-2,5.18v14.57a11.8,11.8,0,0,0,.19,2.81,7.08,7.08,0,0,0,3.14,4.37,7,7,0,0,0,2.55,1,17.09,17.09,0,0,0,2.79.11h5.64l43.15,0,73.06,0,49.26.09,13.39.05,3.49,0,1.18,0-1.18,0-3.49,0-13.39.05-49.26.08-73.06.06H142.07a18.58,18.58,0,0,1-2.87-.12,7.48,7.48,0,0,1-2.74-1,7.62,7.62,0,0,1-3.37-4.69,12.13,12.13,0,0,1-.21-2.93V350.69a7.65,7.65,0,0,1,2.11-5.54,7.52,7.52,0,0,1,5.49-2.35l162.52.07,28.07,0a7.51,7.51,0,0,1,5.49,2.24,7.39,7.39,0,0,1,2.13,5.06c0,3.54,0,6.78,0,9.69,0,1.45,0,2.82,0,4.11a30,30,0,0,1-.12,3.62,7.32,7.32,0,0,1-2.92,4.75,7.1,7.1,0,0,1-3.2,1.32,6.07,6.07,0,0,1-.89.08Z"/><g class="cls-8"><path d="M228.19,379.43c-4.61-12.44-9.23-26.24-4.47-38.62L203,355q12,36.32,24.05,72.64l18.39-1.58Q236.83,402.78,228.19,379.43Z"/></g><g class="cls-8"><path d="M297.91,336.39,263.55,432.1c7.09-1.62,12.93-6.86,16.85-13S286.58,406,288.79,399q5.49-17.12,11-34.22c1.53-4.79,3.08-9.67,3.21-14.69S301.61,339.8,297.91,336.39Z"/></g><path class="cls-4" d="M190.71,311s-22.18,26.07-22.18,35.86,36,99.9,36.48,99.16,33.05-13.46,33.05-13.46-23.26-76.64-23.26-77.62,1.47-9.55,1.47-9.55l19.59-1.95-1.94-46C220.29,296.53,205.75,302,190.71,311Z"/><path class="cls-4" d="M291.81,319.84s10.4,10.85,9.91,21.87S260.34,448,260.34,448l-32.52-11.39,29.09-82.87-4.4-8.33-8.57-2.2-8.08.25-1.94-46,8.93.05a64,64,0,0,1,42.84,16.75Z"/><path class="cls-7" d="M206.38,322.07a8.54,8.54,0,0,1,1.47.21,14.93,14.93,0,0,1,1.7.37c.65.17,1.41.34,2.21.63a40.69,40.69,0,0,1,5.58,2.22,47.23,47.23,0,0,1,6.31,3.77,46,46,0,0,1,5.58,4.78c.77.83,1.53,1.6,2.15,2.39l.92,1.13c.27.37.53.74.79,1.08.51.69.91,1.35,1.27,1.93a14.34,14.34,0,0,1,.86,1.51,8.06,8.06,0,0,1,.64,1.34c-.1.05-1-1.85-3.07-4.56l-.81-1.05-.93-1.1c-.63-.77-1.39-1.52-2.16-2.33a48.66,48.66,0,0,0-5.54-4.7,50.58,50.58,0,0,0-6.23-3.76,45,45,0,0,0-5.47-2.3c-.79-.31-1.54-.5-2.18-.7s-1.2-.35-1.67-.45A7.45,7.45,0,0,1,206.38,322.07Z"/><path class="cls-7" d="M264,320.42a52,52,0,0,0-5.34,1.37l-1.25.45-1.32.6c-.93.38-1.83,1-2.82,1.48a42.6,42.6,0,0,0-5.89,4.32,51.65,51.65,0,0,0-8.64,10.07c-.49.7-.88,1.37-1.23,2s-.66,1.07-.89,1.5a8.41,8.41,0,0,1-.77,1.27,8.42,8.42,0,0,1,.59-1.37c.21-.44.47-1,.81-1.55s.7-1.28,1.18-2a47.2,47.2,0,0,1,8.61-10.26,40.61,40.61,0,0,1,6-4.35,31.21,31.21,0,0,1,2.89-1.45l1.35-.58,1.28-.43a16.57,16.57,0,0,1,2.25-.6l.93-.21.79-.09A9.13,9.13,0,0,1,264,320.42Z"/><path class="cls-7" d="M200.52,341.65a2.65,2.65,0,0,1,.77.25,20.06,20.06,0,0,1,2,1,27.39,27.39,0,0,1,10.4,10,19.79,19.79,0,0,1,1,1.95,2.57,2.57,0,0,1,.28.77c-.08,0-.61-1-1.62-2.53a32.09,32.09,0,0,0-10.28-9.89C201.52,342.22,200.48,341.73,200.52,341.65Z"/><path class="cls-7" d="M205.78,336.75a5.51,5.51,0,0,1,2.06.53,14.34,14.34,0,0,1,7.46,6.82,5.72,5.72,0,0,1,.72,2,22.24,22.24,0,0,0-4.18-5.71A21.87,21.87,0,0,0,205.78,336.75Z"/><path class="cls-7" d="M260.34,448l-.16,0-.45-.14-1.75-.58L251.34,445l-23.59-8.17-.22-.07.08-.22,11.14-31.36,16.16-45.09c2.09-5.74,3.78-10.4,5-13.65.58-1.58,1-2.82,1.37-3.7.15-.4.28-.72.37-1a1.58,1.58,0,0,1,.14-.32,1.36,1.36,0,0,1-.09.34c-.08.25-.19.57-.32,1-.31.88-.73,2.13-1.28,3.73-1.15,3.27-2.78,7.94-4.8,13.7-4.11,11.58-9.76,27.53-16,45.15L228,436.66l-.14-.29,23.53,8.34,6.59,2.38,1.74.64.44.17Z"/><path class="cls-10" d="M294.23,185.86c0,.22-.47.5-1.14.38s-1-.56-.93-.75.58-.16,1.08-.07S294.19,185.63,294.23,185.86Z"/><path class="cls-3" d="M276.42,143.65a5.71,5.71,0,0,1,6.54-1,7.82,7.82,0,0,1,9.12,3.08,7,7,0,0,1,8.28,8.59,5.81,5.81,0,0,1,1.87,10.87,5.58,5.58,0,0,1-5.52,9.63l-21.27-24.66A5.71,5.71,0,0,1,276.42,143.65Z"/><path class="cls-9" d="M297.25,175.83a23.7,23.7,0,0,0-15.92-27.9l-1.17-.37c-12.84-3.26-22.79,5.82-25.69,18.75L244,204h0l18.21,22.4,9.42-7.9,1.43-3.18s12.72,2,16.71-10.11C291.67,199.35,294.67,187,297.25,175.83Z"/><path class="cls-10" d="M273.14,215.3a30.82,30.82,0,0,1-14.4-9.68s.42,10.1,12.86,12.85Z"/><path class="cls-4" d="M289.88,186.24a1.81,1.81,0,0,1-2.22,1.21,1.73,1.73,0,0,1-1.29-2.12,1.81,1.81,0,0,1,2.22-1.22A1.73,1.73,0,0,1,289.88,186.24Z"/><path class="cls-4" d="M292.7,181.6c-.28.15-1.29-1.23-3.15-1.82s-3.52-.09-3.65-.38c-.07-.13.28-.47,1-.71a5,5,0,0,1,3,0,4.77,4.77,0,0,1,2.42,1.73C292.78,181.06,292.84,181.53,292.7,181.6Z"/><path class="cls-4" d="M273.79,181.69a1.82,1.82,0,0,1-2.22,1.22,1.74,1.74,0,0,1-1.29-2.13,1.82,1.82,0,0,1,2.22-1.22A1.74,1.74,0,0,1,273.79,181.69Z"/><path class="cls-4" d="M275,175.69c-.29.15-1.29-1.23-3.15-1.82s-3.53-.09-3.66-.38c-.06-.13.28-.47,1-.71a5,5,0,0,1,3,0,4.77,4.77,0,0,1,2.42,1.73C275,175.15,275.11,175.62,275,175.69Z"/><path class="cls-4" d="M276.73,191.43a12.77,12.77,0,0,1,3.19.42c.49.1,1,.15,1.16-.15a2.6,2.6,0,0,0,.13-1.51c-.08-1.3-.17-2.65-.26-4.07-.32-5.77-.39-10.46-.15-10.47s.67,4.66,1,10.43c.07,1.42.13,2.78.19,4.07a2.88,2.88,0,0,1-.34,1.95,1.24,1.24,0,0,1-1,.44,3.27,3.27,0,0,1-.85-.14A12.49,12.49,0,0,1,276.73,191.43Z"/><path class="cls-3" d="M269.19,170.38c.25-.5,1.91,0,4,0s3.76-.34,4,.18c.09.24-.27.69-1,1.1a6.13,6.13,0,0,1-3.06.7,5.91,5.91,0,0,1-3-.86C269.38,171.09,269.08,170.62,269.19,170.38Z"/><path class="cls-3" d="M289.14,173.74c.52-.21,1.45.87,2.84,1.7s2.73,1.25,2.77,1.81c0,.27-.41.54-1.13.6A4.8,4.8,0,0,1,289.1,175C288.84,174.34,288.9,173.85,289.14,173.74Z"/><path class="cls-3" d="M297.84,169.91s-.78-8.6-3.88-11.54c-3.75-3.54-7.2.71-11-1.81s-7.42-5.91-12.77-4c-5.86,2.08-4.44,5.28-6.44,10.57-8.09,21.42-14,26.32-11.9,15.69.23-1.16-2.61-3-1.56-7.94,1.35-6.36,3.49-13.91,6.25-17.85,2.33-3.32,5.24-5.2,9.9-6.81,7.35-2.55,15.56,0,20.93,2.27S301.36,160.57,297.84,169.91Z"/><path class="cls-9" d="M252.67,178.72a3.45,3.45,0,0,0-2.54-4.3c-2.33-.5-5.25,0-6.58,4.7-2.37,8.37,6.52,9,6.6,8.78S251.72,182.23,252.67,178.72Z"/><path class="cls-10" d="M249.22,184.24s-.17.06-.45.11a1.53,1.53,0,0,1-1.1-.29c-.79-.57-1.14-2.19-.75-3.71a5,5,0,0,1,1-2,1.72,1.72,0,0,1,1.41-.81.76.76,0,0,1,.74.64c.05.27,0,.42,0,.45s.22-.09.25-.46a1,1,0,0,0-.18-.61,1.15,1.15,0,0,0-.75-.44,2.15,2.15,0,0,0-1.89.86,5.29,5.29,0,0,0-1.16,2.19c-.42,1.7,0,3.53,1.11,4.22a1.59,1.59,0,0,0,1.39.15C249.15,184.44,249.25,184.26,249.22,184.24Z"/><path class="cls-3" d="M257.93,162.72a8.22,8.22,0,0,0,3,2.73,2.83,2.83,0,0,0,3.6-.95c.28-.54.35-1.25.87-1.58s1.41,0,2.08.34a5.56,5.56,0,0,0,6.69-2c.32,1.11,1.77,1.53,2.89,1.22a12.05,12.05,0,0,0,3-1.7,3.58,3.58,0,0,1,3.29-.52c.59.28,1.05.83,1.68,1,1.12.25,2-.86,2.56-1.88s1-2.25,2.14-2.54,2,.39,3,.85,2.32.64,2.89-.25a2.07,2.07,0,0,0,.11-1.62,5.63,5.63,0,0,0-5.69-4,7.63,7.63,0,0,0-12.92-5.65A7.73,7.73,0,0,0,264.47,145a5.61,5.61,0,0,0-8.5,5.86,5.36,5.36,0,0,0-4.08,3.16c-.57,1.71.56,3.95,2.36,4a3.11,3.11,0,0,0,4.18,4.58"/><path class="cls-5" d="M253.64,157.83a2.12,2.12,0,0,0,0,1.76A2.81,2.81,0,0,0,255,161.1a3,3,0,0,0,2.58.06l-.33-.16a8.72,8.72,0,0,0,1,2.59,5.22,5.22,0,0,0,1.22,1.42,3.34,3.34,0,0,0,1.62.68,3.39,3.39,0,0,0,2.82-.61,5,5,0,0,0,1.22-1.51c.22-.4.3-.64.27-.65s-.17.19-.44.54a5.57,5.57,0,0,1-1.26,1.34,3.55,3.55,0,0,1-5-1.47,8.66,8.66,0,0,1-1-2.43l-.07-.29-.26.12a2.64,2.64,0,0,1-2.2,0,2.56,2.56,0,0,1-1.25-1.27A4.19,4.19,0,0,1,253.64,157.83Z"/><path class="cls-5" d="M275.3,143.87s.2.13.52.4a3.09,3.09,0,0,1,.94,1.51l.05.19.16-.12a10.75,10.75,0,0,1,5-2,8.42,8.42,0,0,1,3.49.31,7.22,7.22,0,0,1,4.65,4.76,5.78,5.78,0,0,1,.12,2.79l-.06.27h.28a4.9,4.9,0,0,1,3.31,1.51,4.71,4.71,0,0,1,1.24,2.62,6.38,6.38,0,0,1-.26,2.61,1.65,1.65,0,0,0,.31-.64,4.84,4.84,0,0,0,.23-2,5,5,0,0,0-1.24-2.84,5.22,5.22,0,0,0-3.57-1.71l.21.28a6.21,6.21,0,0,0-.1-3,7.47,7.47,0,0,0-1.55-2.84,7.56,7.56,0,0,0-3.42-2.25,8.74,8.74,0,0,0-3.69-.29,10.51,10.51,0,0,0-5.14,2.19l.21.07a3,3,0,0,0-1.12-1.54A1.41,1.41,0,0,0,275.3,143.87Z"/><path class="cls-4" d="M275.21,198.71c-.23,0-.63-1.14-1.79-1.9s-2.41-.67-2.45-.9.28-.29.83-.34a3.29,3.29,0,0,1,2.08.55,3.4,3.4,0,0,1,1.32,1.69C275.37,198.34,275.31,198.68,275.21,198.71Z"/><path class="cls-10" d="M267.19,177.87c.05.22-.74.54-1.7.28s-1.47-.94-1.32-1.1.77.09,1.54.29S267.15,177.63,267.19,177.87Z"/><path class="cls-10" d="M267.55,179.67c-.06.23-1,.14-2.21.28s-2.1.43-2.22.22.78-.9,2.13-1S267.63,179.46,267.55,179.67Z"/><path class="cls-10" d="M269.37,197.36c-.06.09-.28.07-.54-.11a1.94,1.94,0,0,1-.71-1,1.89,1.89,0,0,1,0-1.23c.12-.31.28-.44.39-.41s.17.72.4,1.4S269.5,197.17,269.37,197.36Z"/><path class="cls-10" d="M293.83,187.7c-.11.2-.58.16-1.06-.09s-.77-.61-.67-.82.58-.17,1.06.08S293.93,187.49,293.83,187.7Z"/><path class="cls-10" d="M253.24,202.4c0,.06-.1.13-.17.29a1.38,1.38,0,0,0-.1.79,5.72,5.72,0,0,1,.06.69,1.34,1.34,0,0,1-.33.94,2.17,2.17,0,0,1-.88.51,1.89,1.89,0,0,0-.64.32c-.1.1-.13.22-.1.49a3.41,3.41,0,0,1,0,.94,1.4,1.4,0,0,1-.53.84c-.21.17-.4.28-.53.39a.85.85,0,0,0-.35.61c0,.16.09.26.06.31s-.22.07-.37-.22a1.07,1.07,0,0,1,.25-1.13c.3-.33.72-.62.71-.91a4.82,4.82,0,0,0-.1-.73,1.36,1.36,0,0,1,0-.57,1.23,1.23,0,0,1,.32-.62,2.42,2.42,0,0,1,1-.49,1.77,1.77,0,0,0,.6-.28c.23-.17.21-.66.23-1.08a1.4,1.4,0,0,1,.45-1C253.07,202.3,253.24,202.36,253.24,202.4Z"/><path class="cls-10" d="M254.65,203.59s.18,0,.32.21a1.41,1.41,0,0,1,.13,1,3.05,3.05,0,0,1-.68,1.29,4,4,0,0,0-.78,1.2,1.7,1.7,0,0,0,0,.69,1.51,1.51,0,0,1-.23,1,3.79,3.79,0,0,1-1.14.84,1.05,1.05,0,0,0-.4.55c0,.15,0,.27,0,.31s-.2,0-.29-.28a1.19,1.19,0,0,1,.33-1c.31-.33.74-.55.9-.83a.84.84,0,0,0,0-.51,2.59,2.59,0,0,1,.05-1,4,4,0,0,1,1-1.46,3.16,3.16,0,0,0,.69-1C254.81,204.05,254.56,203.67,254.65,203.59Z"/><path class="cls-10" d="M271.78,185.72c-.22.06-.69-1-1.86-1.56s-2.26-.45-2.34-.68.23-.31.75-.41a3.13,3.13,0,0,1,2,.35,3.2,3.2,0,0,1,1.4,1.45C271.92,185.35,271.89,185.69,271.78,185.72Z"/><path class="cls-10" d="M282.24,170.15c.1-.05.28,0,.4.32a1.39,1.39,0,0,1,0,1.1,1.41,1.41,0,0,1-.77.8c-.27.11-.47,0-.5-.05s.31-.55.5-1.06S282,170.27,282.24,170.15Z"/><path class="cls-10" d="M284,174.54c-.09.07-.31,0-.52-.36a2.36,2.36,0,0,1,.24-2.74c.26-.28.5-.35.57-.27s-.24.81-.3,1.67S284.19,174.4,284,174.54Z"/><path class="cls-9" d="M305.83,188.7l-2.89,18.14-11.42,2.67-.94-1.25a3.68,3.68,0,0,1-.63-3.08l4.64-18.67,2.22-7.29,4.49-1.09Z"/><path class="cls-9" d="M300.51,188.07l-1.57-4.69-3.08-1.58s-3.78.26-4.62-2.27a3.31,3.31,0,0,1-2.38-4.12l4.06.15s-3.66-2-1.44-4.63l3.57,1.29-.34-1.52a2.54,2.54,0,0,1,.71-2.69h0l4,6.29a10.72,10.72,0,0,1,2.68,3.29c.07.16.13.31.18.46l3.55,10.65"/><path class="cls-10" d="M305.83,188.7a7,7,0,0,1-.44-1.08c-.27-.77-.63-1.8-1.09-3.07s-1-3-1.65-4.78a13.48,13.48,0,0,0-1.14-2.81,11.54,11.54,0,0,0-2.23-2.49l0,0,0,0-2.7-4.2-.71-1.11-.36-.56-.18-.28,0-.07,0,0h0l.38,0h0l-.1.11a2.28,2.28,0,0,0-.51,2.3h0c.11.48.22,1,.34,1.52l.1.46-.44-.16-2.27-.82-1.3-.47.29-.07a2.19,2.19,0,0,0-.46,2.4,4.5,4.5,0,0,0,1.83,1.84l.86.51-1,0-4.06-.16.24-.18a3.11,3.11,0,0,0,.29,2.46,3.58,3.58,0,0,0,1.91,1.39l.11,0,0,.1a3,3,0,0,0,1.91,1.79,6.88,6.88,0,0,0,2.49.37h0l0,0,3.07,1.61.05,0,0,.05,1.09,3.49a9.89,9.89,0,0,1,.34,1.25,6.89,6.89,0,0,1-.49-1.21c-.3-.85-.71-2-1.21-3.44l.07.08-3.1-1.54.09,0a7.26,7.26,0,0,1-2.64-.35,3.4,3.4,0,0,1-2.2-2l.16.14a4,4,0,0,1-2.19-1.56,3.58,3.58,0,0,1-.37-2.83l.05-.19h.19l4.06.14-.13.47a5,5,0,0,1-2.05-2.07,2.45,2.45,0,0,1-.18-1.56,3.41,3.41,0,0,1,.71-1.39l.11-.14.18.06,1.29.47,2.27.82-.34.3c-.11-.52-.23-1-.33-1.52v0a2.78,2.78,0,0,1,.63-2.81l.13-.13,0,0h0c.77.11.21,0,.38.06h0l0,0,0,.07.18.28.36.56c.23.38.47.75.7,1.12.93,1.46,1.82,2.87,2.66,4.21l-.05,0a11.53,11.53,0,0,1,2.31,2.61,6.61,6.61,0,0,1,.68,1.49c.15.49.31,1,.46,1.43l1.55,4.81,1,3.12A7.15,7.15,0,0,1,305.83,188.7Z"/><path class="cls-10" d="M300,187.27a5.16,5.16,0,0,1-.37-1l-.85-2.84.09.11-3.1-1.53.12,0a6.62,6.62,0,0,1-2.71-.31,3.35,3.35,0,0,1-2.18-2.12l0-.08,0-.1c.22-.42.44-.86.67-1.32l.08-.15h.17l1,.07,6.53.48h.07l.05,0,3.1,2.33.05,0,0,.05c.54,1.4,1,2.57,1.36,3.5a6.93,6.93,0,0,1,.44,1.31,5.79,5.79,0,0,1-.63-1.23l-1.53-3.43.06.08-3.15-2.26.12,0-6.52-.43-1-.07.25-.14c-.24.45-.46.9-.68,1.32l0-.18a2.9,2.9,0,0,0,1.85,1.78,6.47,6.47,0,0,0,2.51.33h.06l0,0,3.06,1.62.07,0,0,.07c.27,1.15.51,2.1.69,2.88A5,5,0,0,1,300,187.27Z"/><path class="cls-10" d="M300.26,177.21c-.06.14-1.77-.46-3.95-.91s-4-.58-4-.73a9.8,9.8,0,0,1,4.09.22A10,10,0,0,1,300.26,177.21Z"/><path class="cls-10" d="M299.14,188.38a23.81,23.81,0,0,0,.85,4.83l.05.15-.13.1a16.14,16.14,0,0,0-3.1,3.13,16.59,16.59,0,0,0-2.8,5.91c-.41,1.64-.44,2.71-.53,2.7s-.05-.26-.06-.75a12.72,12.72,0,0,1,.23-2,15.05,15.05,0,0,1,6-9.33l-.08.25a12.78,12.78,0,0,1-.55-3.59A4,4,0,0,1,299.14,188.38Z"/><polygon class="cls-9" points="303.65 202.36 309.94 219.55 293.71 226.95 291.52 209.51 303.65 202.36"/><path class="cls-10" d="M300.2,174.89a33.43,33.43,0,0,1-4.31-1.83,30.75,30.75,0,0,1-4.26-1.94,15.9,15.9,0,0,1,4.47,1.47A15.53,15.53,0,0,1,300.2,174.89Z"/><path class="cls-10" d="M295.83,182a3.5,3.5,0,0,1-.11,1c-.11.62-.28,1.51-.51,2.6-.45,2.19-1.14,5.21-2,8.52s-1.65,6.3-2.28,8.45c-.31,1.07-.58,1.94-.78,2.53a3.47,3.47,0,0,1-.36.91,27.2,27.2,0,0,1,.79-3.54c.58-2.3,1.31-5.23,2.13-8.47s1.54-6.17,2.11-8.48A27.14,27.14,0,0,1,295.83,182Z"/></g></svg>